{"title":"Match of the Day 2 - 8th February 2015 - hdtv x264","uid":11689156,"size":794543091,"categoryP":"video","categoryS":"tv_shows","magnet":"?xt=urn:btih:91c79209ab2d91e0c37c33e7d7acb5d98ffa371c&amp;dn=Match+of+the+Day+2+-+8th+February+2015+-+hdtv+x264&amp;tr=udp%3A%2F%2Ftracker.openbittorrent.com%3A80&amp;tr=udp%3A%2F%2Fopen.demonii.com%3A1337&amp;tr=udp%3A%2F%2Ftracker.coppersurfer.tk%3A6969&amp;tr=udp%3A%2F%2Fexodus.desync.com%3A6969","seeders":5,"leechers":0,"uploader":"rugbybill","files":3,"time":1423441660,"description":"SPORT: Match of the Day 2\nOn: BBC 2 HD     \nDate: Sunday 8th February 2015 \nTime: 22:00 to 23:15 \n\nMark Chapman presents highlights of the day's three Premier League matches. Burnley welcome West Brom to Turf Moor in a crucial battle towards the foot of the table. When the two sides met earlier in the season, the Baggies inflicted a heavy 4-0 defeat on the newly promoted Clarets, but since then Sean Dyche's side have found their feet in the Premier League and are now a different proposition. Stoke face a tricky trip to play Newcastle. The Potters have come away with three points on just one of their five Premier League visits to St James' Park, but they have won the last two games at home against the Magpies by the same scoreline: 1-0. West Ham host Manchester United in the last fixture of the day. The Red Devils have taken 34 points from their last 12 Premier League games against the Hammers and last lost in this fixture back in 2007. Last season, Manchester United won 2-1 courtesy of a wonder goal from current skipper Wayne Rooney.\n\n\nGeneral\nComplete name               : 2015.02.08.MOTD2.hdtv.x264.mp4\nFormat                      : MPEG-4\nFormat profile              : Base Media / Version 2\nCodec ID                    : mp42\nFile size                   : 758 MiB\nDuration                    : 1h 14mn\nOverall bit rate mode       : Variable\nOverall bit rate            : 1 426 Kbps\nWriting application         : #YGFD                     \n\nVideo\nID                          : 1\nFormat                      : AVC\nFormat/Info                 : Advanced Video Codec\nFormat profile              : &lt;a class=&quot;__cf_email__&quot; href=&quot;/cdn-cgi/l/email-protection&quot; data-cfemail=&quot;cf87a6a8a78f83fce1ff&quot;&gt;[email&amp;#160;protected]&lt;/a&gt;&lt;script cf-hash='f9e31' type=&quot;text/javascript&quot;&gt;\n/* &lt;![CDATA[ */!function(){try{var t=&quot;currentScript&quot;in document?document.currentScript:function(){for(var t=document.getElementsByTagName(&quot;script&quot;),e=t.length;e--;)if(t[e].getAttribute(&quot;cf-hash&quot;))return t[e]}();if(t&amp;&amp;t.previousSibling){var e,r,n,i,c=t.previousSibling,a=c.getAttribute(&quot;data-cfemail&quot;);if(a){for(e=&quot;&quot;,r=parseInt(a.substr(0,2),16),n=2;a.length-n;n+=2)i=parseInt(a.substr(n,2),16)^r,e+=String.fromCharCode(i);e=document.createTextNode(e),c.parentNode.replaceChild(e,c)}}}catch(u){}}();/* ]]&gt; */&lt;/script&gt;\nFormat settings, CABAC      : Yes\nFormat settings, ReFrames   : 4 frames\nCodec ID                    : avc1\nCodec ID/Info               : Advanced Video Coding\nDuration                    : 1h 14mn\nBit rate                    : 1 300 Kbps\nWidth                       : 704 pixels\nHeight                      : 400 pixels\nDisplay aspect ratio        : 16:9\nFrame rate mode             : Constant\nFrame rate                  : 25.000 fps\nColor space                 : YUV\nChroma subsampling          : 4:2:0\nBit depth                   : 8 bits\nScan type                   : Progressive\nBits/(Pixel*Frame)          : 0.185\nStream size                 : 687 MiB (91%)\nWriting library             : x264 core 130 r2273 b3065e6\nEncoding settings           : cabac=1 / ref=3 / deblock=1:0:0 / analyse=0x3:0x113 / me=hex / subme=7 / psy=1 / psy_rd=1.00:0.00 / mixed_ref=1 / me_range=16 / chroma_me=1 / trellis=1 / 8x8dct=1 / cqm=0 / deadzone=21,11 / fast_pskip=1 / chroma_qp_offset=-2 / threads=6 / lookahead_threads=1 / sliced_threads=0 / nr=0 / decimate=1 / interlaced=0 / bluray_compat=0 / constrained_intra=0 / bframes=3 / b_pyramid=2 / b_adapt=1 / b_bias=0 / direct=1 / weightb=1 / open_gop=0 / weightp=2 / keyint=250 / keyint_min=25 / scenecut=40 / intra_refresh=0 / rc_lookahead=40 / rc=abr / mbtree=1 / bitrate=1300 / ratetol=1.0 / qcomp=0.60 / qpmin=0 / qpmax=69 / qpstep=4 / vbv_maxrate=12500 / vbv_bufsize=12500 / nal_hrd=none / ip_ratio=1.40 / aq=1:1.00\n\nAudio\nID                          : 2\nFormat                      : AAC\nFormat/Info                 : Advanced Audio Codec\nFormat profile              : LC\nCodec ID                    : 40\nDuration                    : 1h 14mn\nBit rate mode               : Variable\nBit rate                    : 128 Kbps\nMaximum bit rate            : 267 Kbps\nChannel(s)                  : 2 channels\nChannel positions           : Front: L R\nSampling rate               : 48.0 KHz\nCompression mode            : Lossy\nStream size                 : 68.0 MiB (9%)\nTitle                       : Stereo\nLanguage                    : English","torrent":{"xt":"urn:btih:91c79209ab2d91e0c37c33e7d7acb5d98ffa371c","amp;dn":"Match+of+the+Day+2+-+8th+February+2015+-+hdtv+x264","amp;tr":["udp%3A%2F%2Ftracker.openbittorrent.com%3A80","udp%3A%2F%2Fopen.demonii.com%3A1337","udp%3A%2F%2Ftracker.coppersurfer.tk%3A6969","udp%3A%2F%2Fexodus.desync.com%3A6969"],"infoHash":"91c79209ab2d91e0c37c33e7d7acb5d98ffa371c","infoHashBuffer":{"type":"Buffer","data":[145,199,146,9,171,45,145,224,195,124,51,231,215,172,181,217,143,250,55,28]},"announce":[],"urlList":[]}}